<svg xmlns="http://www.w3.org/2000/svg" viewBox="0 0 512 512" width="512" height="512">
  <rect width="512" height="512" fill="#111010" rx="113"/>
  <path d="M256 41C256 41 186 131 186 256C186 381 256 471 256 471C256 471 326 381 326 256C326 131 256 41 256 41Z" fill="#9B1B30"/>
  <path d="M256 41C256 41 76 110 29 214C-18 318 47 421 116 471C116 471 194 380 207 256C220 145 256 41 256 41Z" fill="#9B1B30" opacity="0.7"/>
  <path d="M256 41C256 41 436 110 483 214C530 318 465 421 396 471C396 471 318 380 305 256C292 145 256 41 256 41Z" fill="#9B1B30" opacity="0.7"/>
  <circle cx="256" cy="256" r="48" fill="#9B1B30"/>
  <circle cx="256" cy="256" r="24" fill="#111010"/>
</svg>